<svg version="1.1" id="Layer_1" xmlns="http://www.w3.org/2000/svg" xmlns:xlink="http://www.w3.org/1999/xlink" x="0px" y="0px"
	 width="100%" viewBox="0 0 103 108" enable-background="new 0 0 103 108" xml:space="preserve">
<path fill="#FFFEFD" opacity="1.000000" stroke="none" 
	d="
M1.000000,43.000000 
	C1.000000,28.666668 1.000000,14.833337 1.000000,1.000004 
	C35.333328,1.000003 69.666656,1.000003 103.999985,1.000001 
	C103.999992,36.999989 103.999992,72.999977 104.000000,108.999977 
	C69.666679,108.999985 35.333363,108.999985 1.000021,108.999992 
	C1.000000,87.166664 1.000000,65.333336 1.000000,43.000000 
M72.041191,97.553307 
	C78.246864,102.409492 85.661324,103.328918 93.144669,104.168358 
	C97.642296,104.672874 100.155945,102.554886 101.588661,99.379837 
	C79.787209,87.971283 71.613762,65.247612 55.909729,48.394066 
	C65.614258,38.019115 74.629143,28.025015 84.114182,18.499048 
	C86.402626,16.200727 90.118034,14.866072 93.409142,14.141258 
	C97.349792,13.273390 97.807381,11.509542 96.674728,8.391132 
	C85.054253,8.391132 73.664703,8.391132 62.420647,8.391132 
	C61.361755,12.060155 62.500771,13.511161 66.042160,14.013755 
	C72.272934,14.898026 73.557861,18.113924 70.166183,23.359522 
	C69.446686,24.472307 68.612968,25.527689 67.723564,26.511610 
	C59.796349,35.281250 51.847454,44.031300 43.897717,52.780560 
	C42.637360,54.167671 41.340923,55.522007 39.188316,57.825558 
	C39.188316,44.775879 39.066013,33.173096 39.249863,21.575169 
	C39.321171,17.077131 41.564808,14.072083 46.551334,13.775373 
	C50.106491,13.563833 51.720375,11.926552 50.008392,8.337012 
	C35.627663,8.337012 21.390640,8.337012 7.176651,8.337012 
	C6.657286,11.107816 6.567154,13.002873 9.911624,13.734670 
	C17.377493,15.368262 17.989035,16.365814 17.993866,24.248161 
	C18.005606,43.399738 18.139442,62.552746 17.946926,81.702393 
	C17.825796,93.751129 20.223658,93.792877 7.158301,97.345825 
	C7.158301,98.726982 7.158301,100.145485 7.158301,101.712570 
	C21.645952,101.712570 35.883274,101.712570 50.012447,101.712570 
	C51.887318,97.417397 49.387009,96.403389 46.206280,96.170441 
	C41.179749,95.802315 39.271088,92.787056 39.190716,88.214729 
	C39.099995,83.053696 39.421505,77.872276 39.073795,72.732864 
	C38.770065,68.243393 40.287819,65.079170 44.378857,62.655621 
	C45.433350,63.997536 46.434299,65.273003 47.437023,66.547073 
	C55.451324,76.730110 63.465969,86.912872 72.041191,97.553307 
z"/>
<path fill="#FF735B" opacity="1.000000" stroke="none" 
	d="
M71.760849,97.324516 
	C63.465969,86.912872 55.451324,76.730110 47.437023,66.547073 
	C46.434299,65.273003 45.433350,63.997536 44.378857,62.655621 
	C40.287819,65.079170 38.770065,68.243393 39.073795,72.732864 
	C39.421505,77.872276 39.099995,83.053696 39.190716,88.214729 
	C39.271088,92.787056 41.179749,95.802315 46.206280,96.170441 
	C49.387009,96.403389 51.887318,97.417397 50.012447,101.712570 
	C35.883274,101.712570 21.645952,101.712570 7.158301,101.712570 
	C7.158301,100.145485 7.158301,98.726982 7.158301,97.345825 
	C20.223658,93.792877 17.825796,93.751129 17.946926,81.702393 
	C18.139442,62.552746 18.005606,43.399738 17.993866,24.248161 
	C17.989035,16.365814 17.377493,15.368262 9.911624,13.734670 
	C6.567154,13.002873 6.657286,11.107816 7.176651,8.337012 
	C21.390640,8.337012 35.627663,8.337012 50.008392,8.337012 
	C51.720375,11.926552 50.106491,13.563833 46.551334,13.775373 
	C41.564808,14.072083 39.321171,17.077131 39.249863,21.575169 
	C39.066013,33.173096 39.188316,44.775879 39.188316,57.825558 
	C41.340923,55.522007 42.637360,54.167671 43.897717,52.780560 
	C51.847454,44.031300 59.796349,35.281250 67.723564,26.511610 
	C68.612968,25.527689 69.446686,24.472307 70.166183,23.359522 
	C73.557861,18.113924 72.272934,14.898026 66.042160,14.013755 
	C62.500771,13.511161 61.361755,12.060155 62.420647,8.391132 
	C73.664703,8.391132 85.054253,8.391132 96.674728,8.391132 
	C97.807381,11.509542 97.349792,13.273390 93.409142,14.141258 
	C90.118034,14.866072 86.402626,16.200727 84.114182,18.499048 
	C74.629143,28.025015 65.614258,38.019115 55.909729,48.394066 
	C71.613762,65.247612 79.787209,87.971283 101.588661,99.379837 
	C100.155945,102.554886 97.642296,104.672874 93.144669,104.168358 
	C85.661324,103.328918 78.246864,102.409492 71.760849,97.324516 
z"/>
</svg>